{
    "asset": {
        "generator": "FBX2glTF",
        "version": "2.0"
    },
    "scene": 0,
    "buffers": [
        {
            "byteLength": 18964,
            "uri": "buffer.bin"
        }
    ],
    "bufferViews": [
        {
            "buffer": 0,
            "byteLength": 4500,
            "byteOffset": 0,
            "target": 34963
        },
        {
            "buffer": 0,
            "byteLength": 5424,
            "byteOffset": 4500,
            "target": 34962
        },
        {
            "buffer": 0,
            "byteLength": 5424,
            "byteOffset": 9924,
            "target": 34962
        },
        {
            "buffer": 0,
            "byteLength": 3616,
            "byteOffset": 15348,
            "target": 34962
        }
    ],
    "scenes": [
        {
            "name": "Root Scene",
            "nodes": [
                0
            ]
        }
    ],
    "accessors": [
        {
            "componentType": 5123,
            "type": "SCALAR",
            "count": 2250,
            "bufferView": 0,
            "byteOffset": 0
        },
        {
            "componentType": 5126,
            "type": "VEC3",
            "count": 452,
            "bufferView": 1,
            "byteOffset": 0,
            "min": [
                -2.09409785270691,
                -6.2900652885437,
                -0.0209344886243343
            ],
            "max": [
                2.09409785270691,
                0.0154965864494443,
                11.905309677124
            ]
        },
        {
            "componentType": 5126,
            "type": "VEC3",
            "count": 452,
            "bufferView": 2,
            "byteOffset": 0
        },
        {
            "componentType": 5126,
            "type": "VEC2",
            "count": 452,
            "bufferView": 3,
            "byteOffset": 0
        }
    ],
    "images": [
      {
            "name": "oculus_go_controller_normal.png",
            "uri": "oculus_go_controller_normal.png"
      },
      {
            "name": "oculus_go_controller_ambient.png",
            "uri": "oculus_go_controller_ambient.png"
      },
      {
            "name": "oculus_go_controller_diffuse.png",
            "uri": "oculus_go_controller_diffuse.png"
      },
      {
            "name": "oculus_go_controller_roughness.png",
            "uri": "oculus_go_controller_roughness.png"
       }
    ],
    "samplers": [
        {}
    ],
    "textures": [
        {
            "name": "normal",
            "sampler": 0,
            "source": 0
        },
        {
            "name": "ambient",
            "sampler": 0,
            "source": 1
        },
        {
            "name": "diffuse",
            "sampler": 0,
            "source": 2
        },
        {
                "name": "roughness",
                "sampler": 0,
                "source": 3
        }
    ],
    "materials": [
        {
            "name": "mp",
            "alphaMode": "OPAQUE",
            "normalTexture": {
                "index": 0,
                "texCoord": 0
            },
            "pbrMetallicRoughness": {
              "baseColorFactor": [
                0.479999989271164,
                0.479999989271164,
                0.479999989271164,
                1.0
              ],
              "baseColorTexture": {
                "index": 2,
                "texCoord": 0
              },
              
              "occlusionTexture": {
                "index": 1
              },
                "metallicFactor": 0.400000005960464,
                "roughnessFactor": 0.600000023841858,
                "metallicRoughnessTexture": {
                    "index": 3,
                    "texCoord": 0
                }
            }
        }
    ],
    "meshes": [
        {
            "name": "Mesh",
            "primitives": [
                {
                    "material": 0,
                    "mode": 4,
                    "attributes": {
                        "NORMAL": 2,
                        "POSITION": 1,
                        "TEXCOORD_0": 3
                    },
                    "indices": 0
                }
            ]
        }
    ],
    "cameras": [
        {
            "name": "",
            "type": "perspective",
            "perspective": {
                "znear": 0.100000001490116,
                "zfar": 40.0,
                "aspectRatio": 1.5,
                "yfov": 0.698131680488586
            }
        }
    ],
    "nodes": [
        {
            "name": "RootNode",
            "translation": [
                0.0,
                0.0,
                0.0
            ],
            "rotation": [
                0.0,
                0.0,
                0.0,
                1.0
            ],
            "scale": [
                1.0,
                1.0,
                1.0
            ],
            "children": [
                1,
                2,
                3,
                4,
                5,
                6,
                7
            ]
        },
        {
            "name": "Texture Group",
            "translation": [
                0.0,
                0.0,
                0.0
            ],
            "rotation": [
                0.0,
                0.0,
                0.0,
                1.0
            ],
            "scale": [
                0.00999999977648258,
                0.00999999977648258,
                0.00999999977648258
            ]
        },
        {
            "name": "Texture Group (2)",
            "translation": [
                0.0,
                0.0,
                0.0
            ],
            "rotation": [
                0.0,
                0.0,
                0.0,
                1.0
            ],
            "scale": [
                0.00999999977648258,
                0.00999999977648258,
                0.00999999977648258
            ]
        },
        {
            "name": "Texture Group (3)",
            "translation": [
                0.0,
                0.0,
                0.0
            ],
            "rotation": [
                0.0,
                0.0,
                0.0,
                1.0
            ],
            "scale": [
                0.00999999977648258,
                0.00999999977648258,
                0.00999999977648258
            ]
        },
        {
            "name": "Mesh",
            "translation": [
                0.0,
                0.0,
                0.0
            ],
            "rotation": [
                0.0,
                0.0,
                0.0,
                1.0
            ],
            "scale": [
                0.00999999977648258,
                0.00999999977648258,
                0.00999999977648258
            ],
            "mesh": 0
        },
        {
            "name": "Camera",
            "translation": [
                0.0,
                0.75,
                4.0
            ],
            "rotation": [
                -0.0308435652405024,
                0.706433773040771,
                -0.0308435652405024,
                0.706433773040771
            ],
            "scale": [
                0.00999999977648258,
                0.00999999977648258,
                0.00999999977648258
            ],
            "camera": 0
        },
        {
            "name": "Texture Group (4)",
            "translation": [
                0.0,
                0.0,
                0.0
            ],
            "rotation": [
                0.0,
                0.0,
                0.0,
                1.0
            ],
            "scale": [
                0.00999999977648258,
                0.00999999977648258,
                0.00999999977648258
            ]
        },
        {
            "name": "Directional Light",
            "translation": [
                -2.0,
                2.0,
                2.0
            ],
            "rotation": [
                0.461939752101898,
                -0.331413567066193,
                0.191341713070869,
                0.80010312795639
            ],
            "scale": [
                0.00999999977648258,
                0.00999999977648258,
                0.00999999977648258
            ]
        }
    ]
}
