{
    "asset": {
        "generator": "FBX2glTF",
        "version": "2.0"
    },
    "scene": 0,
    "buffers": [
        {
            "byteLength": 236004,
            "uri": "buffer.bin"
        }
    ],
    "bufferViews": [
        {
            "buffer": 0,
            "byteLength": 16284,
            "byteOffset": 0,
            "target": 34963
        },
        {
            "buffer": 0,
            "byteLength": 23220,
            "byteOffset": 16284,
            "target": 34962
        },
        {
            "buffer": 0,
            "byteLength": 23220,
            "byteOffset": 39504,
            "target": 34962
        },
        {
            "buffer": 0,
            "byteLength": 30960,
            "byteOffset": 62724,
            "target": 34962
        },
        {
            "buffer": 0,
            "byteLength": 15480,
            "byteOffset": 93684,
            "target": 34962
        },
        {
            "buffer": 0,
            "byteLength": 15480,
            "byteOffset": 109164,
            "target": 34962
        },
        {
            "buffer": 0,
            "byteLength": 15480,
            "byteOffset": 124644,
            "target": 34962
        },
        {
            "buffer": 0,
            "byteLength": 30960,
            "byteOffset": 140124,
            "target": 34962
        },
        {
            "buffer": 0,
            "byteLength": 1200,
            "byteOffset": 171084,
            "target": 34963
        },
        {
            "buffer": 0,
            "byteLength": 1968,
            "byteOffset": 172284,
            "target": 34962
        },
        {
            "buffer": 0,
            "byteLength": 1968,
            "byteOffset": 174252,
            "target": 34962
        },
        {
            "buffer": 0,
            "byteLength": 2624,
            "byteOffset": 176220,
            "target": 34962
        },
        {
            "buffer": 0,
            "byteLength": 1312,
            "byteOffset": 178844,
            "target": 34962
        },
        {
            "buffer": 0,
            "byteLength": 1312,
            "byteOffset": 180156,
            "target": 34962
        },
        {
            "buffer": 0,
            "byteLength": 1312,
            "byteOffset": 181468,
            "target": 34962
        },
        {
            "buffer": 0,
            "byteLength": 2624,
            "byteOffset": 182780,
            "target": 34962
        },
        {
            "buffer": 0,
            "byteLength": 672,
            "byteOffset": 185404,
            "target": 34963
        },
        {
            "buffer": 0,
            "byteLength": 1356,
            "byteOffset": 186076,
            "target": 34962
        },
        {
            "buffer": 0,
            "byteLength": 1356,
            "byteOffset": 187432,
            "target": 34962
        },
        {
            "buffer": 0,
            "byteLength": 1808,
            "byteOffset": 188788,
            "target": 34962
        },
        {
            "buffer": 0,
            "byteLength": 904,
            "byteOffset": 190596,
            "target": 34962
        },
        {
            "buffer": 0,
            "byteLength": 904,
            "byteOffset": 191500,
            "target": 34962
        },
        {
            "buffer": 0,
            "byteLength": 904,
            "byteOffset": 192404,
            "target": 34962
        },
        {
            "buffer": 0,
            "byteLength": 1808,
            "byteOffset": 193308,
            "target": 34962
        },
        {
            "buffer": 0,
            "byteLength": 480,
            "byteOffset": 195116,
            "target": 34963
        },
        {
            "buffer": 0,
            "byteLength": 972,
            "byteOffset": 195596,
            "target": 34962
        },
        {
            "buffer": 0,
            "byteLength": 972,
            "byteOffset": 196568,
            "target": 34962
        },
        {
            "buffer": 0,
            "byteLength": 1296,
            "byteOffset": 197540,
            "target": 34962
        },
        {
            "buffer": 0,
            "byteLength": 648,
            "byteOffset": 198836,
            "target": 34962
        },
        {
            "buffer": 0,
            "byteLength": 648,
            "byteOffset": 199484,
            "target": 34962
        },
        {
            "buffer": 0,
            "byteLength": 648,
            "byteOffset": 200132,
            "target": 34962
        },
        {
            "buffer": 0,
            "byteLength": 1296,
            "byteOffset": 200780,
            "target": 34962
        },
        {
            "buffer": 0,
            "byteLength": 2328,
            "byteOffset": 202076,
            "target": 34963
        },
        {
            "buffer": 0,
            "byteLength": 4692,
            "byteOffset": 204404,
            "target": 34962
        },
        {
            "buffer": 0,
            "byteLength": 4692,
            "byteOffset": 209096,
            "target": 34962
        },
        {
            "buffer": 0,
            "byteLength": 6256,
            "byteOffset": 213788,
            "target": 34962
        },
        {
            "buffer": 0,
            "byteLength": 3128,
            "byteOffset": 220044,
            "target": 34962
        },
        {
            "buffer": 0,
            "byteLength": 3128,
            "byteOffset": 223172,
            "target": 34962
        },
        {
            "buffer": 0,
            "byteLength": 3128,
            "byteOffset": 226300,
            "target": 34962
        },
        {
            "buffer": 0,
            "byteLength": 6256,
            "byteOffset": 229428,
            "target": 34962
        },
        {
            "buffer": 0,
            "byteLength": 64,
            "byteOffset": 235684
        },
        {
            "buffer": 0,
            "byteLength": 64,
            "byteOffset": 235748
        },
        {
            "buffer": 0,
            "byteLength": 64,
            "byteOffset": 235812
        },
        {
            "buffer": 0,
            "byteLength": 64,
            "byteOffset": 235876
        },
        {
            "buffer": 0,
            "byteLength": 64,
            "byteOffset": 235940
        }
    ],
    "scenes": [
        {
            "name": "Root Scene",
            "nodes": [
                0
            ]
        }
    ],
    "accessors": [
        {
            "componentType": 5123,
            "type": "SCALAR",
            "count": 8142,
            "bufferView": 0,
            "byteOffset": 0
        },
        {
            "componentType": 5126,
            "type": "VEC3",
            "count": 1935,
            "bufferView": 1,
            "byteOffset": 0,
            "min": [
                -0.0212849415838718,
                -0.0602943785488605,
                -0.000389978871680796
            ],
            "max": [
                0.0212849415838718,
                0.00265911314636469,
                0.119126319885254
            ]
        },
        {
            "componentType": 5126,
            "type": "VEC3",
            "count": 1935,
            "bufferView": 2,
            "byteOffset": 0
        },
        {
            "componentType": 5126,
            "type": "VEC4",
            "count": 1935,
            "bufferView": 3,
            "byteOffset": 0
        },
        {
            "componentType": 5126,
            "type": "VEC2",
            "count": 1935,
            "bufferView": 4,
            "byteOffset": 0
        },
        {
            "componentType": 5126,
            "type": "VEC2",
            "count": 1935,
            "bufferView": 5,
            "byteOffset": 0
        },
        {
            "componentType": 5123,
            "type": "VEC4",
            "count": 1935,
            "bufferView": 6,
            "byteOffset": 0
        },
        {
            "componentType": 5126,
            "type": "VEC4",
            "count": 1935,
            "bufferView": 7,
            "byteOffset": 0
        },
        {
            "componentType": 5123,
            "type": "SCALAR",
            "count": 600,
            "bufferView": 8,
            "byteOffset": 0
        },
        {
            "componentType": 5126,
            "type": "VEC3",
            "count": 164,
            "bufferView": 9,
            "byteOffset": 0,
            "min": [
                -0.0186799615621567,
                0.00228133634664118,
                0.00201755273155868
            ],
            "max": [
                0.0186799615621567,
                0.00265911314636469,
                0.03937728703022
            ]
        },
        {
            "componentType": 5126,
            "type": "VEC3",
            "count": 164,
            "bufferView": 10,
            "byteOffset": 0
        },
        {
            "componentType": 5126,
            "type": "VEC4",
            "count": 164,
            "bufferView": 11,
            "byteOffset": 0
        },
        {
            "componentType": 5126,
            "type": "VEC2",
            "count": 164,
            "bufferView": 12,
            "byteOffset": 0
        },
        {
            "componentType": 5126,
            "type": "VEC2",
            "count": 164,
            "bufferView": 13,
            "byteOffset": 0
        },
        {
            "componentType": 5123,
            "type": "VEC4",
            "count": 164,
            "bufferView": 14,
            "byteOffset": 0
        },
        {
            "componentType": 5126,
            "type": "VEC4",
            "count": 164,
            "bufferView": 15,
            "byteOffset": 0
        },
        {
            "componentType": 5123,
            "type": "SCALAR",
            "count": 336,
            "bufferView": 16,
            "byteOffset": 0
        },
        {
            "componentType": 5126,
            "type": "VEC3",
            "count": 113,
            "bufferView": 17,
            "byteOffset": 0,
            "min": [
                -0.00356872542761266,
                0.0023450895678252,
                0.0490732192993164
            ],
            "max": [
                0.00356872542761266,
                0.00333842472173274,
                0.0562108233571053
            ]
        },
        {
            "componentType": 5126,
            "type": "VEC3",
            "count": 113,
            "bufferView": 18,
            "byteOffset": 0
        },
        {
            "componentType": 5126,
            "type": "VEC4",
            "count": 113,
            "bufferView": 19,
            "byteOffset": 0
        },
        {
            "componentType": 5126,
            "type": "VEC2",
            "count": 113,
            "bufferView": 20,
            "byteOffset": 0
        },
        {
            "componentType": 5126,
            "type": "VEC2",
            "count": 113,
            "bufferView": 21,
            "byteOffset": 0
        },
        {
            "componentType": 5123,
            "type": "VEC4",
            "count": 113,
            "bufferView": 22,
            "byteOffset": 0
        },
        {
            "componentType": 5126,
            "type": "VEC4",
            "count": 113,
            "bufferView": 23,
            "byteOffset": 0
        },
        {
            "componentType": 5123,
            "type": "SCALAR",
            "count": 240,
            "bufferView": 24,
            "byteOffset": 0
        },
        {
            "componentType": 5126,
            "type": "VEC3",
            "count": 81,
            "bufferView": 25,
            "byteOffset": 0,
            "min": [
                -0.00368663785047829,
                0.0023450895678252,
                0.0580412670969963
            ],
            "max": [
                0.00368663785047829,
                0.00281073641963303,
                0.0654144659638405
            ]
        },
        {
            "componentType": 5126,
            "type": "VEC3",
            "count": 81,
            "bufferView": 26,
            "byteOffset": 0
        },
        {
            "componentType": 5126,
            "type": "VEC4",
            "count": 81,
            "bufferView": 27,
            "byteOffset": 0
        },
        {
            "componentType": 5126,
            "type": "VEC2",
            "count": 81,
            "bufferView": 28,
            "byteOffset": 0
        },
        {
            "componentType": 5126,
            "type": "VEC2",
            "count": 81,
            "bufferView": 29,
            "byteOffset": 0
        },
        {
            "componentType": 5123,
            "type": "VEC4",
            "count": 81,
            "bufferView": 30,
            "byteOffset": 0
        },
        {
            "componentType": 5126,
            "type": "VEC4",
            "count": 81,
            "bufferView": 31,
            "byteOffset": 0
        },
        {
            "componentType": 5123,
            "type": "SCALAR",
            "count": 1164,
            "bufferView": 32,
            "byteOffset": 0
        },
        {
            "componentType": 5126,
            "type": "VEC3",
            "count": 391,
            "bufferView": 33,
            "byteOffset": 0,
            "min": [
                -0.0141491694375873,
                -0.0352202206850052,
                0.00323184719309211
            ],
            "max": [
                0.0141491694375873,
                -0.00920245889574289,
                0.0183247737586498
            ]
        },
        {
            "componentType": 5126,
            "type": "VEC3",
            "count": 391,
            "bufferView": 34,
            "byteOffset": 0
        },
        {
            "componentType": 5126,
            "type": "VEC4",
            "count": 391,
            "bufferView": 35,
            "byteOffset": 0
        },
        {
            "componentType": 5126,
            "type": "VEC2",
            "count": 391,
            "bufferView": 36,
            "byteOffset": 0
        },
        {
            "componentType": 5126,
            "type": "VEC2",
            "count": 391,
            "bufferView": 37,
            "byteOffset": 0
        },
        {
            "componentType": 5123,
            "type": "VEC4",
            "count": 391,
            "bufferView": 38,
            "byteOffset": 0
        },
        {
            "componentType": 5126,
            "type": "VEC4",
            "count": 391,
            "bufferView": 39,
            "byteOffset": 0
        },
        {
            "componentType": 5126,
            "type": "MAT4",
            "count": 1,
            "bufferView": 40,
            "byteOffset": 0
        },
        {
            "componentType": 5126,
            "type": "MAT4",
            "count": 1,
            "bufferView": 41,
            "byteOffset": 0
        },
        {
            "componentType": 5126,
            "type": "MAT4",
            "count": 1,
            "bufferView": 42,
            "byteOffset": 0
        },
        {
            "componentType": 5126,
            "type": "MAT4",
            "count": 1,
            "bufferView": 43,
            "byteOffset": 0
        },
        {
            "componentType": 5126,
            "type": "MAT4",
            "count": 1,
            "bufferView": 44,
            "byteOffset": 0
        }
    ],
    "images": [
        {
            "name": "oculus-go-controller-texture.png",
            "uri": "oculus-go-controller-texture.png"
        }
    ],
    "samplers": [
        {}
    ],
    "textures": [
        {
            "name": "file1",
            "sampler": 0,
            "source": 0
        }
    ],
    "materials": [
        {
            "name": "mp",
            "alphaMode": "OPAQUE",
            "extras": {
                "fromFBX": {
                    "shadingModel": "Phong",
                    "isTruePBR": false
                }
            },
            "pbrMetallicRoughness": {
                "baseColorTexture": {
                    "index": 0,
                    "texCoord": 0
                },
                "baseColorFactor": [
                    1.0,
                    1.0,
                    1.0,
                    1.0
                ],
                "metallicFactor": 0.400000005960464,
                "roughnessFactor": 0.0880450904369354
            }
        }
    ],
    "meshes": [
        {
            "name": "oculus_go_controller",
            "primitives": [
                {
                    "material": 0,
                    "mode": 4,
                    "attributes": {
                        "JOINTS_0": 6,
                        "NORMAL": 2,
                        "POSITION": 1,
                        "TANGENT": 3,
                        "TEXCOORD_0": 4,
                        "TEXCOORD_1": 5,
                        "WEIGHTS_0": 7
                    },
                    "indices": 0
                }
            ]
        },
        {
            "name": "oculus_go_touchpad",
            "primitives": [
                {
                    "material": 0,
                    "mode": 4,
                    "attributes": {
                        "JOINTS_0": 14,
                        "NORMAL": 10,
                        "POSITION": 9,
                        "TANGENT": 11,
                        "TEXCOORD_0": 12,
                        "TEXCOORD_1": 13,
                        "WEIGHTS_0": 15
                    },
                    "indices": 8
                }
            ]
        },
        {
            "name": "oculus_go_button_back",
            "primitives": [
                {
                    "material": 0,
                    "mode": 4,
                    "attributes": {
                        "JOINTS_0": 22,
                        "NORMAL": 18,
                        "POSITION": 17,
                        "TANGENT": 19,
                        "TEXCOORD_0": 20,
                        "TEXCOORD_1": 21,
                        "WEIGHTS_0": 23
                    },
                    "indices": 16
                }
            ]
        },
        {
            "name": "oculus_go_button_home",
            "primitives": [
                {
                    "material": 0,
                    "mode": 4,
                    "attributes": {
                        "JOINTS_0": 30,
                        "NORMAL": 26,
                        "POSITION": 25,
                        "TANGENT": 27,
                        "TEXCOORD_0": 28,
                        "TEXCOORD_1": 29,
                        "WEIGHTS_0": 31
                    },
                    "indices": 24
                }
            ]
        },
        {
            "name": "oculus_go_button_trigger",
            "primitives": [
                {
                    "material": 0,
                    "mode": 4,
                    "attributes": {
                        "JOINTS_0": 38,
                        "NORMAL": 34,
                        "POSITION": 33,
                        "TANGENT": 35,
                        "TEXCOORD_0": 36,
                        "TEXCOORD_1": 37,
                        "WEIGHTS_0": 39
                    },
                    "indices": 32
                }
            ]
        }
    ],
    "skins": [
        {
            "joints": [
                3
            ],
            "inverseBindMatrices": 40,
            "skeleton": 3
        },
        {
            "joints": [
                3
            ],
            "inverseBindMatrices": 41,
            "skeleton": 3
        },
        {
            "joints": [
                3
            ],
            "inverseBindMatrices": 42,
            "skeleton": 3
        },
        {
            "joints": [
                3
            ],
            "inverseBindMatrices": 43,
            "skeleton": 3
        },
        {
            "joints": [
                3
            ],
            "inverseBindMatrices": 44,
            "skeleton": 3
        }
    ],
    "nodes": [
        {
            "name": "RootNode",
            "translation": [
                0.0,
                0.0,
                0.0
            ],
            "rotation": [
                0.0,
                0.0,
                0.0,
                1.0
            ],
            "scale": [
                1.0,
                1.0,
                1.0
            ],
            "children": [
                1,
                4
            ]
        },
        {
            "name": "oculus_go_controller_world",
            "translation": [
                0.0,
                0.0,
                0.0
            ],
            "rotation": [
                -3.06161713146292e-17,
                -0.0,
                0.0,
                1.0
            ],
            "scale": [
                1.0,
                1.0,
                1.0
            ],
            "children": [
                2
            ]
        },
        {
            "name": "b_root",
            "translation": [
                0.0,
                0.0,
                0.0
            ],
            "rotation": [
                0.0,
                0.0,
                0.0,
                1.0
            ],
            "scale": [
                1.0,
                1.0,
                1.0
            ],
            "children": [
                3
            ]
        },
        {
            "name": "b_root_extra",
            "translation": [
                0.0,
                0.0,
                0.0
            ],
            "rotation": [
                0.0,
                0.0,
                0.0,
                1.0
            ],
            "scale": [
                1.0,
                1.0,
                1.0
            ]
        },
        {
            "name": "mesh",
            "translation": [
                0.0,
                0.0,
                -2.84217087951293e-16
            ],
            "rotation": [
                -3.06161713146292e-17,
                -0.0,
                0.0,
                1.0
            ],
            "scale": [
                1.0,
                1.0,
                1.0
            ],
            "children": [
                5,
                6,
                7,
                8,
                9
            ]
        },
        {
            "name": "oculus_go_controller",
            "translation": [
                0.0,
                0.0,
                0.0
            ],
            "rotation": [
                0.0,
                0.0,
                0.0,
                1.0
            ],
            "scale": [
                1.0,
                1.0,
                1.0
            ],
            "mesh": 0,
            "skin": 0
        },
        {
            "name": "oculus_go_touchpad",
            "translation": [
                0.0,
                0.0,
                0.0
            ],
            "rotation": [
                0.0,
                0.0,
                0.0,
                1.0
            ],
            "scale": [
                1.0,
                1.0,
                1.0
            ],
            "mesh": 1,
            "skin": 1
        },
        {
            "name": "oculus_go_button_back",
            "translation": [
                0.0,
                0.0,
                0.0
            ],
            "rotation": [
                0.0,
                0.0,
                0.0,
                1.0
            ],
            "scale": [
                1.0,
                1.0,
                1.0
            ],
            "mesh": 2,
            "skin": 2
        },
        {
            "name": "oculus_go_button_home",
            "translation": [
                0.0,
                0.0,
                0.0
            ],
            "rotation": [
                0.0,
                0.0,
                0.0,
                1.0
            ],
            "scale": [
                1.0,
                1.0,
                1.0
            ],
            "mesh": 3,
            "skin": 3
        },
        {
            "name": "oculus_go_button_trigger",
            "translation": [
                0.0,
                0.0,
                0.0
            ],
            "rotation": [
                0.0,
                0.0,
                0.0,
                1.0
            ],
            "scale": [
                1.0,
                1.0,
                1.0
            ],
            "mesh": 4,
            "skin": 4
        }
    ]
}
