{
    "accessors" : [
        {
            "bufferView" : 0, 
            "componentType" : 5123, 
            "count" : 1248, 
            "max" : [
                288
            ], 
            "min" : [
                0
            ], 
            "type" : "SCALAR"
        }, 
        {
            "bufferView" : 1, 
            "componentType" : 5126, 
            "count" : 289, 
            "max" : [
                0.01605300046503544, 
                0.06268200278282166, 
                0.003911000210791826
            ], 
            "min" : [
                0.006087000016123056, 
                0.05384400114417076, 
                -0.00381199992261827
            ], 
            "type" : "VEC3"
        }, 
        {
            "bufferView" : 2, 
            "componentType" : 5126, 
            "count" : 289, 
            "max" : [
                0.9984130263328552, 
                0.7714468836784363, 
                0.6337168216705322
            ], 
            "min" : [
                -0.9984130263328552, 
                -0.9855037331581116, 
                -0.9986266493797302
            ], 
            "type" : "VEC3"
        }, 
        {
            "bufferView" : 3, 
            "componentType" : 5126, 
            "count" : 289, 
            "max" : [
                1.0, 
                0.835204541683197, 
                0.9168465733528137, 
                1.0
            ], 
            "min" : [
                0.0015131678665056825, 
                -0.8411789536476135, 
                -0.9170934557914734, 
                1.0
            ], 
            "type" : "VEC4"
        }, 
        {
            "bufferView" : 4, 
            "componentType" : 5126, 
            "count" : 289, 
            "max" : [
                0.9800350069999695, 
                0.4342759847640991
            ], 
            "min" : [
                0.8943589925765991, 
                0.34859901666641235
            ], 
            "type" : "VEC2"
        }, 
        {
            "bufferView" : 5, 
            "componentType" : 5123, 
            "count" : 1254, 
            "max" : [
                292
            ], 
            "min" : [
                0
            ], 
            "type" : "SCALAR"
        }, 
        {
            "bufferView" : 6, 
            "componentType" : 5126, 
            "count" : 293, 
            "max" : [
                0.022299999371170998, 
                0.05221699923276901, 
                0.012507000006735325
            ], 
            "min" : [
                0.01233300007879734, 
                0.04337900131940842, 
                0.004784000106155872
            ], 
            "type" : "VEC3"
        }, 
        {
            "bufferView" : 7, 
            "componentType" : 5126, 
            "count" : 293, 
            "max" : [
                0.9984130263328552, 
                0.7716605067253113, 
                0.6337778568267822
            ], 
            "min" : [
                -0.9984130263328552, 
                -0.9860835671424866, 
                -0.9985350966453552
            ], 
            "type" : "VEC3"
        }, 
        {
            "bufferView" : 8, 
            "componentType" : 5126, 
            "count" : 293, 
            "max" : [
                1.0, 
                0.8351669311523438, 
                0.9167994856834412, 
                1.0
            ], 
            "min" : [
                0.0015180911868810654, 
                -0.9183162450790405, 
                -0.9171594381332397, 
                1.0
            ], 
            "type" : "VEC4"
        }, 
        {
            "bufferView" : 9, 
            "componentType" : 5126, 
            "count" : 293, 
            "max" : [
                0.9800350069999695, 
                0.3457760214805603
            ], 
            "min" : [
                0.20177599787712097, 
                0.20043498277664185
            ], 
            "type" : "VEC2"
        }, 
        {
            "bufferView" : 10, 
            "componentType" : 5123, 
            "count" : 4224, 
            "max" : [
                1107
            ], 
            "min" : [
                0
            ], 
            "type" : "SCALAR"
        }, 
        {
            "bufferView" : 11, 
            "componentType" : 5126, 
            "count" : 1108, 
            "max" : [
                0.006045999936759472, 
                0.05546100065112114, 
                0.014821999706327915
            ], 
            "min" : [
                -0.00902200024574995, 
                0.037723999470472336, 
                -0.002686999971047044
            ], 
            "type" : "VEC3"
        }, 
        {
            "bufferView" : 12, 
            "componentType" : 5126, 
            "count" : 1108, 
            "max" : [
                1.0, 
                0.9112216830253601, 
                0.8138676285743713
            ], 
            "min" : [
                -1.0, 
                -0.999969482421875, 
                -0.999969482421875
            ], 
            "type" : "VEC3"
        }, 
        {
            "bufferView" : 13, 
            "componentType" : 5126, 
            "count" : 1108, 
            "max" : [
                1.0, 
                0.9982032179832458, 
                0.9999113082885742, 
                1.0
            ], 
            "min" : [
                -0.924325704574585, 
                -0.9999480247497559, 
                -0.9969975352287292, 
                -1.0
            ], 
            "type" : "VEC4"
        }, 
        {
            "bufferView" : 14, 
            "componentType" : 5126, 
            "count" : 1108, 
            "max" : [
                0.6989560127258301, 
                0.7525489926338196
            ], 
            "min" : [
                0.3215399980545044, 
                0.011191010475158691
            ], 
            "type" : "VEC2"
        }, 
        {
            "bufferView" : 15, 
            "componentType" : 5123, 
            "count" : 1056, 
            "max" : [
                288
            ], 
            "min" : [
                0
            ], 
            "type" : "SCALAR"
        }, 
        {
            "bufferView" : 16, 
            "componentType" : 5126, 
            "count" : 289, 
            "max" : [
                0.0009430000209249556, 
                0.06856799870729446, 
                0.0013330000219866633
            ], 
            "min" : [
                -0.008314999751746655, 
                0.05939500033855438, 
                -0.007002000231295824
            ], 
            "type" : "VEC3"
        }, 
        {
            "bufferView" : 17, 
            "componentType" : 5126, 
            "count" : 289, 
            "max" : [
                0.999298095703125, 
                0.7722098231315613, 
                0.634266197681427
            ], 
            "min" : [
                -0.999298095703125, 
                -0.9979552626609802, 
                -0.9874874353408813
            ], 
            "type" : "VEC3"
        }, 
        {
            "bufferView" : 18, 
            "componentType" : 5126, 
            "count" : 289, 
            "max" : [
                1.0, 
                0.9053757190704346, 
                0.9609979391098022, 
                1.0
            ], 
            "min" : [
                -0.0005474976496770978, 
                -0.8816422820091248, 
                -0.9417555928230286, 
                1.0
            ], 
            "type" : "VEC4"
        }, 
        {
            "bufferView" : 19, 
            "componentType" : 5126, 
            "count" : 289, 
            "max" : [
                0.11913900077342987, 
                0.3088120222091675
            ], 
            "min" : [
                0.01409399975091219, 
                0.013269007205963135
            ], 
            "type" : "VEC2"
        }, 
        {
            "bufferView" : 20, 
            "componentType" : 5123, 
            "count" : 1950, 
            "max" : [
                356
            ], 
            "min" : [
                0
            ], 
            "type" : "SCALAR"
        }, 
        {
            "bufferView" : 21, 
            "componentType" : 5126, 
            "count" : 357, 
            "max" : [
                0.013944000005722046, 
                0.09984099864959717, 
                0.0213019996881485
            ], 
            "min" : [
                0.0008120000129565597, 
                0.07577700167894363, 
                -0.0033919999841600657
            ], 
            "type" : "VEC3"
        }, 
        {
            "bufferView" : 22, 
            "componentType" : 5126, 
            "count" : 357, 
            "max" : [
                0.999053955078125, 
                0.9938047528266907, 
                0.9936826825141907
            ], 
            "min" : [
                -0.17218543589115143, 
                -0.9699392914772034, 
                -0.999786376953125
            ], 
            "type" : "VEC3"
        }, 
        {
            "bufferView" : 23, 
            "componentType" : 5126, 
            "count" : 357, 
            "max" : [
                0.9748920202255249, 
                0.6362850069999695
            ], 
            "min" : [
                0.8782709836959839, 
                0.4638980031013489
            ], 
            "type" : "VEC2"
        }, 
        {
            "bufferView" : 24, 
            "componentType" : 5123, 
            "count" : 25209, 
            "max" : [
                5633
            ], 
            "min" : [
                0
            ], 
            "type" : "SCALAR"
        }, 
        {
            "bufferView" : 25, 
            "componentType" : 5126, 
            "count" : 5634, 
            "max" : [
                0.044780001044273376, 
                0.13857899606227875, 
                0.08010700345039368
            ], 
            "min" : [
                -0.06481499969959259, 
                0.023972999304533005, 
                -0.013945000246167183
            ], 
            "type" : "VEC3"
        }, 
        {
            "bufferView" : 26, 
            "componentType" : 5126, 
            "count" : 5634, 
            "max" : [
                0.999969482421875, 
                0.99951171875, 
                0.9991455078125
            ], 
            "min" : [
                -1.0, 
                -0.99932861328125, 
                -0.999664306640625
            ], 
            "type" : "VEC3"
        }, 
        {
            "bufferView" : 27, 
            "componentType" : 5126, 
            "count" : 5634, 
            "max" : [
                0.9883739948272705, 
                0.9951619999483228
            ], 
            "min" : [
                0.005867999978363514, 
                0.01526498794555664
            ], 
            "type" : "VEC2"
        }, 
        {
            "bufferView" : 28, 
            "componentType" : 5123, 
            "count" : 1956, 
            "max" : [
                347
            ], 
            "min" : [
                0
            ], 
            "type" : "SCALAR"
        }, 
        {
            "bufferView" : 29, 
            "componentType" : 5126, 
            "count" : 348, 
            "max" : [
                0.019267000257968903, 
                0.061404999345541, 
                0.046112000942230225
            ], 
            "min" : [
                -0.006725000217556953, 
                0.03615900129079819, 
                0.01989400014281273
            ], 
            "type" : "VEC3"
        }, 
        {
            "bufferView" : 30, 
            "componentType" : 5126, 
            "count" : 348, 
            "max" : [
                0.999908447265625, 
                0.773094892501831, 
                0.9567552804946899
            ], 
            "min" : [
                -0.999847412109375, 
                -0.9757683277130127, 
                -0.6731467843055725
            ], 
            "type" : "VEC3"
        }, 
        {
            "bufferView" : 31, 
            "componentType" : 5126, 
            "count" : 348, 
            "max" : [
                0.9999592304229736, 
                0.923564076423645, 
                0.9328809380531311, 
                1.0
            ], 
            "min" : [
                -0.09968706965446472, 
                -0.9070652723312378, 
                -0.941735029220581, 
                1.0
            ], 
            "type" : "VEC4"
        }, 
        {
            "bufferView" : 32, 
            "componentType" : 5126, 
            "count" : 348, 
            "max" : [
                0.7029560208320618, 
                0.2987560033798218
            ], 
            "min" : [
                0.4389199912548065, 
                0.04277002811431885
            ], 
            "type" : "VEC2"
        }
    ], 
    "asset" : {
        "generator" : "Khronos Blender glTF 2.0 exporter", 
        "version" : "2.0"
    }, 
    "bufferViews" : [
        {
            "buffer" : 0, 
            "byteLength" : 2496, 
            "byteOffset" : 0, 
            "target" : 34963
        }, 
        {
            "buffer" : 0, 
            "byteLength" : 3468, 
            "byteOffset" : 2496, 
            "target" : 34962
        }, 
        {
            "buffer" : 0, 
            "byteLength" : 3468, 
            "byteOffset" : 5964, 
            "target" : 34962
        }, 
        {
            "buffer" : 0, 
            "byteLength" : 4624, 
            "byteOffset" : 9432, 
            "target" : 34962
        }, 
        {
            "buffer" : 0, 
            "byteLength" : 2312, 
            "byteOffset" : 14056, 
            "target" : 34962
        }, 
        {
            "buffer" : 0, 
            "byteLength" : 2508, 
            "byteOffset" : 16368, 
            "target" : 34963
        }, 
        {
            "buffer" : 0, 
            "byteLength" : 3516, 
            "byteOffset" : 18876, 
            "target" : 34962
        }, 
        {
            "buffer" : 0, 
            "byteLength" : 3516, 
            "byteOffset" : 22392, 
            "target" : 34962
        }, 
        {
            "buffer" : 0, 
            "byteLength" : 4688, 
            "byteOffset" : 25908, 
            "target" : 34962
        }, 
        {
            "buffer" : 0, 
            "byteLength" : 2344, 
            "byteOffset" : 30596, 
            "target" : 34962
        }, 
        {
            "buffer" : 0, 
            "byteLength" : 8448, 
            "byteOffset" : 32940, 
            "target" : 34963
        }, 
        {
            "buffer" : 0, 
            "byteLength" : 13296, 
            "byteOffset" : 41388, 
            "target" : 34962
        }, 
        {
            "buffer" : 0, 
            "byteLength" : 13296, 
            "byteOffset" : 54684, 
            "target" : 34962
        }, 
        {
            "buffer" : 0, 
            "byteLength" : 17728, 
            "byteOffset" : 67980, 
            "target" : 34962
        }, 
        {
            "buffer" : 0, 
            "byteLength" : 8864, 
            "byteOffset" : 85708, 
            "target" : 34962
        }, 
        {
            "buffer" : 0, 
            "byteLength" : 2112, 
            "byteOffset" : 94572, 
            "target" : 34963
        }, 
        {
            "buffer" : 0, 
            "byteLength" : 3468, 
            "byteOffset" : 96684, 
            "target" : 34962
        }, 
        {
            "buffer" : 0, 
            "byteLength" : 3468, 
            "byteOffset" : 100152, 
            "target" : 34962
        }, 
        {
            "buffer" : 0, 
            "byteLength" : 4624, 
            "byteOffset" : 103620, 
            "target" : 34962
        }, 
        {
            "buffer" : 0, 
            "byteLength" : 2312, 
            "byteOffset" : 108244, 
            "target" : 34962
        }, 
        {
            "buffer" : 0, 
            "byteLength" : 3900, 
            "byteOffset" : 110556, 
            "target" : 34963
        }, 
        {
            "buffer" : 0, 
            "byteLength" : 4284, 
            "byteOffset" : 114456, 
            "target" : 34962
        }, 
        {
            "buffer" : 0, 
            "byteLength" : 4284, 
            "byteOffset" : 118740, 
            "target" : 34962
        }, 
        {
            "buffer" : 0, 
            "byteLength" : 2856, 
            "byteOffset" : 123024, 
            "target" : 34962
        }, 
        {
            "buffer" : 0, 
            "byteLength" : 50418, 
            "byteOffset" : 125880, 
            "target" : 34963
        }, 
        {
            "buffer" : 0, 
            "byteLength" : 67608, 
            "byteOffset" : 176300, 
            "target" : 34962
        }, 
        {
            "buffer" : 0, 
            "byteLength" : 67608, 
            "byteOffset" : 243908, 
            "target" : 34962
        }, 
        {
            "buffer" : 0, 
            "byteLength" : 45072, 
            "byteOffset" : 311516, 
            "target" : 34962
        }, 
        {
            "buffer" : 0, 
            "byteLength" : 3912, 
            "byteOffset" : 356588, 
            "target" : 34963
        }, 
        {
            "buffer" : 0, 
            "byteLength" : 4176, 
            "byteOffset" : 360500, 
            "target" : 34962
        }, 
        {
            "buffer" : 0, 
            "byteLength" : 4176, 
            "byteOffset" : 364676, 
            "target" : 34962
        }, 
        {
            "buffer" : 0, 
            "byteLength" : 5568, 
            "byteOffset" : 368852, 
            "target" : 34962
        }, 
        {
            "buffer" : 0, 
            "byteLength" : 2784, 
            "byteOffset" : 374420, 
            "target" : 34962
        }
    ], 
    "buffers" : [
        {
            "byteLength" : 377204, 
            "uri" : "data:application/octet-stream;base64,"
        }
    ], 
    "images" : [
        {
            "uri" : "oculus-mr.png"
        }, 
        {
            "uri" : "oculus-color.png"
        }
    ], 
    "materials" : [
        {
            "name" : "oculus", 
            "pbrMetallicRoughness" : {
                "baseColorTexture" : {
                    "index" : 1
                }, 
                "metallicRoughnessTexture" : {
                    "index" : 0
                }
            }
        }
    ], 
    "meshes" : [
        {
            "name" : "oculus-touch-controller-left.002", 
            "primitives" : [
                {
                    "attributes" : {
                        "NORMAL" : 2, 
                        "POSITION" : 1, 
                        "TANGENT" : 3, 
                        "TEXCOORD_0" : 4
                    }, 
                    "indices" : 0, 
                    "material" : 0
                }
            ]
        }, 
        {
            "name" : "oculus-touch-controller-left.001", 
            "primitives" : [
                {
                    "attributes" : {
                        "NORMAL" : 7, 
                        "POSITION" : 6, 
                        "TANGENT" : 8, 
                        "TEXCOORD_0" : 9
                    }, 
                    "indices" : 5, 
                    "material" : 0
                }
            ]
        }, 
        {
            "name" : "oculus-touch-controller-left.007", 
            "primitives" : [
                {
                    "attributes" : {
                        "NORMAL" : 12, 
                        "POSITION" : 11, 
                        "TANGENT" : 13, 
                        "TEXCOORD_0" : 14
                    }, 
                    "indices" : 10, 
                    "material" : 0
                }
            ]
        }, 
        {
            "name" : "oculus-touch-controller-left.003", 
            "primitives" : [
                {
                    "attributes" : {
                        "NORMAL" : 17, 
                        "POSITION" : 16, 
                        "TANGENT" : 18, 
                        "TEXCOORD_0" : 19
                    }, 
                    "indices" : 15, 
                    "material" : 0
                }
            ]
        }, 
        {
            "name" : "oculus-touch-controller-left.004", 
            "primitives" : [
                {
                    "attributes" : {
                        "NORMAL" : 22, 
                        "POSITION" : 21, 
                        "TEXCOORD_0" : 23
                    }, 
                    "indices" : 20, 
                    "material" : 0
                }
            ]
        }, 
        {
            "name" : "oculus-touch-controller-left.006", 
            "primitives" : [
                {
                    "attributes" : {
                        "NORMAL" : 26, 
                        "POSITION" : 25, 
                        "TEXCOORD_0" : 27
                    }, 
                    "indices" : 24, 
                    "material" : 0
                }
            ]
        }, 
        {
            "name" : "oculus-touch-controller-left.005", 
            "primitives" : [
                {
                    "attributes" : {
                        "NORMAL" : 30, 
                        "POSITION" : 29, 
                        "TANGENT" : 31, 
                        "TEXCOORD_0" : 32
                    }, 
                    "indices" : 28, 
                    "material" : 0
                }
            ]
        }
    ], 
    "nodes" : [
        {
            "mesh" : 5, 
            "name" : "body", 
            "rotation" : [
                0.7071068286895752, 
                0.0, 
                -0.0, 
                0.7071067094802856
            ]
        }, 
        {
            "mesh" : 4, 
            "name" : "buttonHand", 
            "rotation" : [
                0.7071068286895752, 
                0.0, 
                -0.0, 
                0.7071067094802856
            ]
        }, 
        {
            "mesh" : 3, 
            "name" : "buttonMenu", 
            "rotation" : [
                0.7071068286895752, 
                0.0, 
                -0.0, 
                0.7071067094802856
            ]
        }, 
        {
            "mesh" : 6, 
            "name" : "buttonTrigger", 
            "rotation" : [
                0.7071068286895752, 
                0.0, 
                -0.0, 
                0.7071067094802856
            ]
        }, 
        {
            "mesh" : 0, 
            "name" : "buttonX", 
            "rotation" : [
                0.7071068286895752, 
                0.0, 
                -0.0, 
                0.7071067094802856
            ]
        }, 
        {
            "mesh" : 1, 
            "name" : "buttonY", 
            "rotation" : [
                0.7071068286895752, 
                0.0, 
                -0.0, 
                0.7071067094802856
            ]
        }, 
        {
            "mesh" : 2, 
            "name" : "stick", 
            "rotation" : [
                0.7071068286895752, 
                0.0, 
                -0.0, 
                0.7071067094802856
            ]
        }
    ], 
    "samplers" : [
        {}
    ], 
    "scene" : 0, 
    "scenes" : [
        {
            "name" : "Scene", 
            "nodes" : [
                6, 
                0, 
                3, 
                1, 
                2, 
                4, 
                5
            ]
        }
    ], 
    "textures" : [
        {
            "sampler" : 0, 
            "source" : 0
        }, 
        {
            "sampler" : 0, 
            "source" : 1
        }
    ]
}
