{
    "accessors" : [
        {
            "bufferView" : 0, 
            "componentType" : 5123, 
            "count" : 1956, 
            "max" : [
                347
            ], 
            "min" : [
                0
            ], 
            "type" : "SCALAR"
        }, 
        {
            "bufferView" : 1, 
            "componentType" : 5126, 
            "count" : 348, 
            "max" : [
                0.006725000217556953, 
                0.061404999345541, 
                0.046112000942230225
            ], 
            "min" : [
                -0.019267000257968903, 
                0.03615900129079819, 
                0.01989400014281273
            ], 
            "type" : "VEC3"
        }, 
        {
            "bufferView" : 2, 
            "componentType" : 5126, 
            "count" : 348, 
            "max" : [
                0.999847412109375, 
                0.773094892501831, 
                0.9567552804946899
            ], 
            "min" : [
                -0.999908447265625, 
                -0.9757683277130127, 
                -0.6731467843055725
            ], 
            "type" : "VEC3"
        }, 
        {
            "bufferView" : 3, 
            "componentType" : 5126, 
            "count" : 348, 
            "max" : [
                0.09968709945678711, 
                0.923564076423645, 
                0.9328809976577759, 
                -1.0
            ], 
            "min" : [
                -0.9999592304229736, 
                -0.9070649147033691, 
                -0.9417348504066467, 
                -1.0
            ], 
            "type" : "VEC4"
        }, 
        {
            "bufferView" : 4, 
            "componentType" : 5126, 
            "count" : 348, 
            "max" : [
                0.7029560208320618, 
                0.2987560033798218
            ], 
            "min" : [
                0.4389199912548065, 
                0.04277002811431885
            ], 
            "type" : "VEC2"
        }, 
        {
            "bufferView" : 5, 
            "componentType" : 5123, 
            "count" : 4800, 
            "max" : [
                1203
            ], 
            "min" : [
                0
            ], 
            "type" : "SCALAR"
        }, 
        {
            "bufferView" : 6, 
            "componentType" : 5126, 
            "count" : 1204, 
            "max" : [
                0.010157999582588673, 
                0.05786500126123428, 
                0.01740100048482418
            ], 
            "min" : [
                -0.0071829999797046185, 
                0.037723999470472336, 
                -0.002686999971047044
            ], 
            "type" : "VEC3"
        }, 
        {
            "bufferView" : 7, 
            "componentType" : 5126, 
            "count" : 1204, 
            "max" : [
                1.0, 
                0.9112216830253601, 
                0.8138676285743713
            ], 
            "min" : [
                -1.0, 
                -0.999969482421875, 
                -0.999969482421875
            ], 
            "type" : "VEC3"
        }, 
        {
            "bufferView" : 8, 
            "componentType" : 5126, 
            "count" : 1204, 
            "max" : [
                1.0, 
                0.9982107281684875, 
                0.9999113082885742, 
                1.0
            ], 
            "min" : [
                -0.9984315633773804, 
                -0.9999479055404663, 
                -0.996997594833374, 
                -1.0
            ], 
            "type" : "VEC4"
        }, 
        {
            "bufferView" : 9, 
            "componentType" : 5126, 
            "count" : 1204, 
            "max" : [
                0.711463987827301, 
                0.7650579959154129
            ], 
            "min" : [
                0.3215399980545044, 
                0.011191010475158691
            ], 
            "type" : "VEC2"
        }, 
        {
            "bufferView" : 10, 
            "componentType" : 5123, 
            "count" : 1056, 
            "max" : [
                288
            ], 
            "min" : [
                0
            ], 
            "type" : "SCALAR"
        }, 
        {
            "bufferView" : 11, 
            "componentType" : 5126, 
            "count" : 289, 
            "max" : [
                0.008313000202178955, 
                0.06856700032949448, 
                0.00133200001437217
            ], 
            "min" : [
                -0.0009410000056959689, 
                0.05939599871635437, 
                -0.007000999990850687
            ], 
            "type" : "VEC3"
        }, 
        {
            "bufferView" : 12, 
            "componentType" : 5126, 
            "count" : 289, 
            "max" : [
                0.99932861328125, 
                0.7721182703971863, 
                0.634296715259552
            ], 
            "min" : [
                -0.99932861328125, 
                -0.9976806044578552, 
                -0.9881588220596313
            ], 
            "type" : "VEC3"
        }, 
        {
            "bufferView" : 13, 
            "componentType" : 5126, 
            "count" : 289, 
            "max" : [
                0.0005399707006290555, 
                0.9053952693939209, 
                0.9609925150871277, 
                -1.0
            ], 
            "min" : [
                -1.0, 
                -0.8816711902618408, 
                -0.9417876601219177, 
                -1.0
            ], 
            "type" : "VEC4"
        }, 
        {
            "bufferView" : 14, 
            "componentType" : 5126, 
            "count" : 289, 
            "max" : [
                0.4945499897003174, 
                0.34641897678375244
            ], 
            "min" : [
                0.07319200038909912, 
                0.2584180235862732
            ], 
            "type" : "VEC2"
        }, 
        {
            "bufferView" : 15, 
            "componentType" : 5123, 
            "count" : 1950, 
            "max" : [
                356
            ], 
            "min" : [
                0
            ], 
            "type" : "SCALAR"
        }, 
        {
            "bufferView" : 16, 
            "componentType" : 5126, 
            "count" : 357, 
            "max" : [
                -0.0008120000129565597, 
                0.09984099864959717, 
                0.0213019996881485
            ], 
            "min" : [
                -0.013944000005722046, 
                0.07577700167894363, 
                -0.0033919999841600657
            ], 
            "type" : "VEC3"
        }, 
        {
            "bufferView" : 17, 
            "componentType" : 5126, 
            "count" : 357, 
            "max" : [
                0.17218543589115143, 
                0.9938047528266907, 
                0.9936826825141907
            ], 
            "min" : [
                -0.999053955078125, 
                -0.9699392914772034, 
                -0.999786376953125
            ], 
            "type" : "VEC3"
        }, 
        {
            "bufferView" : 18, 
            "componentType" : 5126, 
            "count" : 357, 
            "max" : [
                0.9748920202255249, 
                0.6362850069999695
            ], 
            "min" : [
                0.8782709836959839, 
                0.4638980031013489
            ], 
            "type" : "VEC2"
        }, 
        {
            "bufferView" : 19, 
            "componentType" : 5123, 
            "count" : 1440, 
            "max" : [
                352
            ], 
            "min" : [
                0
            ], 
            "type" : "SCALAR"
        }, 
        {
            "bufferView" : 20, 
            "componentType" : 5126, 
            "count" : 353, 
            "max" : [
                -0.012206999585032463, 
                0.05363599956035614, 
                0.014201999641954899
            ], 
            "min" : [
                -0.022415999323129654, 
                0.04337900131940842, 
                0.004784000106155872
            ], 
            "type" : "VEC3"
        }, 
        {
            "bufferView" : 21, 
            "componentType" : 5126, 
            "count" : 353, 
            "max" : [
                0.999298095703125, 
                0.7722098231315613, 
                0.634296715259552
            ], 
            "min" : [
                -0.999298095703125, 
                -0.9860835671424866, 
                -0.9985350966453552
            ], 
            "type" : "VEC3"
        }, 
        {
            "bufferView" : 22, 
            "componentType" : 5126, 
            "count" : 353, 
            "max" : [
                0.9999999403953552, 
                0.889241099357605, 
                0.94556725025177, 
                1.0
            ], 
            "min" : [
                -0.9992809295654297, 
                -0.89164137840271, 
                -0.961288571357727, 
                -1.0
            ], 
            "type" : "VEC4"
        }, 
        {
            "bufferView" : 23, 
            "componentType" : 5126, 
            "count" : 353, 
            "max" : [
                0.4039289951324463, 
                0.25579899549484253
            ], 
            "min" : [
                0.1690399944782257, 
                0.17012202739715576
            ], 
            "type" : "VEC2"
        }, 
        {
            "bufferView" : 24, 
            "componentType" : 5123, 
            "count" : 25227, 
            "max" : [
                5625
            ], 
            "min" : [
                0
            ], 
            "type" : "SCALAR"
        }, 
        {
            "bufferView" : 25, 
            "componentType" : 5126, 
            "count" : 5626, 
            "max" : [
                0.06481499969959259, 
                0.13857699930667877, 
                0.08010700345039368
            ], 
            "min" : [
                -0.044780001044273376, 
                0.023972999304533005, 
                -0.013945000246167183
            ], 
            "type" : "VEC3"
        }, 
        {
            "bufferView" : 26, 
            "componentType" : 5126, 
            "count" : 5626, 
            "max" : [
                1.0, 
                0.99951171875, 
                0.999114990234375
            ], 
            "min" : [
                -0.999969482421875, 
                -0.99932861328125, 
                -0.999664306640625
            ], 
            "type" : "VEC3"
        }, 
        {
            "bufferView" : 27, 
            "componentType" : 5126, 
            "count" : 5626, 
            "max" : [
                0.9883739948272705, 
                0.9951619999483228
            ], 
            "min" : [
                0.005867999978363514, 
                0.015020012855529785
            ], 
            "type" : "VEC2"
        }, 
        {
            "bufferView" : 28, 
            "componentType" : 5123, 
            "count" : 1440, 
            "max" : [
                352
            ], 
            "min" : [
                0
            ], 
            "type" : "SCALAR"
        }, 
        {
            "bufferView" : 29, 
            "componentType" : 5126, 
            "count" : 353, 
            "max" : [
                -0.005987999960780144, 
                0.06411299854516983, 
                0.0055959997698664665
            ], 
            "min" : [
                -0.016196999698877335, 
                0.05384400114417076, 
                -0.00381199992261827
            ], 
            "type" : "VEC3"
        }, 
        {
            "bufferView" : 30, 
            "componentType" : 5126, 
            "count" : 353, 
            "max" : [
                0.999298095703125, 
                0.7722403407096863, 
                0.634296715259552
            ], 
            "min" : [
                -0.999298095703125, 
                -0.9855037331581116, 
                -0.9986266493797302
            ], 
            "type" : "VEC3"
        }, 
        {
            "bufferView" : 31, 
            "componentType" : 5126, 
            "count" : 353, 
            "max" : [
                1.0, 
                0.909194827079773, 
                0.9630879759788513, 
                1.0
            ], 
            "min" : [
                -0.9992831945419312, 
                -0.886154055595398, 
                -0.9420803785324097, 
                -1.0
            ], 
            "type" : "VEC4"
        }, 
        {
            "bufferView" : 32, 
            "componentType" : 5126, 
            "count" : 353, 
            "max" : [
                0.4039289951324463, 
                0.34429800510406494
            ], 
            "min" : [
                0.14056800305843353, 
                0.23434299230575562
            ], 
            "type" : "VEC2"
        }
    ], 
    "asset" : {
        "generator" : "Khronos Blender glTF 2.0 exporter", 
        "version" : "2.0"
    }, 
    "bufferViews" : [
        {
            "buffer" : 0, 
            "byteLength" : 3912, 
            "byteOffset" : 0, 
            "target" : 34963
        }, 
        {
            "buffer" : 0, 
            "byteLength" : 4176, 
            "byteOffset" : 3912, 
            "target" : 34962
        }, 
        {
            "buffer" : 0, 
            "byteLength" : 4176, 
            "byteOffset" : 8088, 
            "target" : 34962
        }, 
        {
            "buffer" : 0, 
            "byteLength" : 5568, 
            "byteOffset" : 12264, 
            "target" : 34962
        }, 
        {
            "buffer" : 0, 
            "byteLength" : 2784, 
            "byteOffset" : 17832, 
            "target" : 34962
        }, 
        {
            "buffer" : 0, 
            "byteLength" : 9600, 
            "byteOffset" : 20616, 
            "target" : 34963
        }, 
        {
            "buffer" : 0, 
            "byteLength" : 14448, 
            "byteOffset" : 30216, 
            "target" : 34962
        }, 
        {
            "buffer" : 0, 
            "byteLength" : 14448, 
            "byteOffset" : 44664, 
            "target" : 34962
        }, 
        {
            "buffer" : 0, 
            "byteLength" : 19264, 
            "byteOffset" : 59112, 
            "target" : 34962
        }, 
        {
            "buffer" : 0, 
            "byteLength" : 9632, 
            "byteOffset" : 78376, 
            "target" : 34962
        }, 
        {
            "buffer" : 0, 
            "byteLength" : 2112, 
            "byteOffset" : 88008, 
            "target" : 34963
        }, 
        {
            "buffer" : 0, 
            "byteLength" : 3468, 
            "byteOffset" : 90120, 
            "target" : 34962
        }, 
        {
            "buffer" : 0, 
            "byteLength" : 3468, 
            "byteOffset" : 93588, 
            "target" : 34962
        }, 
        {
            "buffer" : 0, 
            "byteLength" : 4624, 
            "byteOffset" : 97056, 
            "target" : 34962
        }, 
        {
            "buffer" : 0, 
            "byteLength" : 2312, 
            "byteOffset" : 101680, 
            "target" : 34962
        }, 
        {
            "buffer" : 0, 
            "byteLength" : 3900, 
            "byteOffset" : 103992, 
            "target" : 34963
        }, 
        {
            "buffer" : 0, 
            "byteLength" : 4284, 
            "byteOffset" : 107892, 
            "target" : 34962
        }, 
        {
            "buffer" : 0, 
            "byteLength" : 4284, 
            "byteOffset" : 112176, 
            "target" : 34962
        }, 
        {
            "buffer" : 0, 
            "byteLength" : 2856, 
            "byteOffset" : 116460, 
            "target" : 34962
        }, 
        {
            "buffer" : 0, 
            "byteLength" : 2880, 
            "byteOffset" : 119316, 
            "target" : 34963
        }, 
        {
            "buffer" : 0, 
            "byteLength" : 4236, 
            "byteOffset" : 122196, 
            "target" : 34962
        }, 
        {
            "buffer" : 0, 
            "byteLength" : 4236, 
            "byteOffset" : 126432, 
            "target" : 34962
        }, 
        {
            "buffer" : 0, 
            "byteLength" : 5648, 
            "byteOffset" : 130668, 
            "target" : 34962
        }, 
        {
            "buffer" : 0, 
            "byteLength" : 2824, 
            "byteOffset" : 136316, 
            "target" : 34962
        }, 
        {
            "buffer" : 0, 
            "byteLength" : 50454, 
            "byteOffset" : 139140, 
            "target" : 34963
        }, 
        {
            "buffer" : 0, 
            "byteLength" : 67512, 
            "byteOffset" : 189596, 
            "target" : 34962
        }, 
        {
            "buffer" : 0, 
            "byteLength" : 67512, 
            "byteOffset" : 257108, 
            "target" : 34962
        }, 
        {
            "buffer" : 0, 
            "byteLength" : 45008, 
            "byteOffset" : 324620, 
            "target" : 34962
        }, 
        {
            "buffer" : 0, 
            "byteLength" : 2880, 
            "byteOffset" : 369628, 
            "target" : 34963
        }, 
        {
            "buffer" : 0, 
            "byteLength" : 4236, 
            "byteOffset" : 372508, 
            "target" : 34962
        }, 
        {
            "buffer" : 0, 
            "byteLength" : 4236, 
            "byteOffset" : 376744, 
            "target" : 34962
        }, 
        {
            "buffer" : 0, 
            "byteLength" : 5648, 
            "byteOffset" : 380980, 
            "target" : 34962
        }, 
        {
            "buffer" : 0, 
            "byteLength" : 2824, 
            "byteOffset" : 386628, 
            "target" : 34962
        }
    ], 
    "buffers" : [
        {
            "byteLength" : 389452, 
            "uri" : "data:application/octet-stream;base64,"
        }
    ], 
    "images" : [
        {
            "uri" : "oculus-color.png"
        }, 
        {
            "uri" : "oculus-mr.png"
        }
    ], 
    "materials" : [
        {
            "name" : "oculus", 
            "pbrMetallicRoughness" : {
                "baseColorTexture" : {
                    "index" : 0
                }, 
                "metallicRoughnessTexture" : {
                    "index" : 1
                }
            }
        }
    ], 
    "meshes" : [
        {
            "name" : "oculus-touch-controller-right.006", 
            "primitives" : [
                {
                    "attributes" : {
                        "NORMAL" : 2, 
                        "POSITION" : 1, 
                        "TANGENT" : 3, 
                        "TEXCOORD_0" : 4
                    }, 
                    "indices" : 0, 
                    "material" : 0
                }
            ]
        }, 
        {
            "name" : "oculus-touch-controller-right.004", 
            "primitives" : [
                {
                    "attributes" : {
                        "NORMAL" : 7, 
                        "POSITION" : 6, 
                        "TANGENT" : 8, 
                        "TEXCOORD_0" : 9
                    }, 
                    "indices" : 5, 
                    "material" : 0
                }
            ]
        }, 
        {
            "name" : "oculus-touch-controller-right.001", 
            "primitives" : [
                {
                    "attributes" : {
                        "NORMAL" : 12, 
                        "POSITION" : 11, 
                        "TANGENT" : 13, 
                        "TEXCOORD_0" : 14
                    }, 
                    "indices" : 10, 
                    "material" : 0
                }
            ]
        }, 
        {
            "name" : "oculus-touch-controller-right.005", 
            "primitives" : [
                {
                    "attributes" : {
                        "NORMAL" : 17, 
                        "POSITION" : 16, 
                        "TEXCOORD_0" : 18
                    }, 
                    "indices" : 15, 
                    "material" : 0
                }
            ]
        }, 
        {
            "name" : "oculus-touch-controller-right.003", 
            "primitives" : [
                {
                    "attributes" : {
                        "NORMAL" : 21, 
                        "POSITION" : 20, 
                        "TANGENT" : 22, 
                        "TEXCOORD_0" : 23
                    }, 
                    "indices" : 19, 
                    "material" : 0
                }
            ]
        }, 
        {
            "name" : "oculus-touch-controller-right", 
            "primitives" : [
                {
                    "attributes" : {
                        "NORMAL" : 26, 
                        "POSITION" : 25, 
                        "TEXCOORD_0" : 27
                    }, 
                    "indices" : 24, 
                    "material" : 0
                }
            ]
        }, 
        {
            "name" : "oculus-touch-controller-right.002", 
            "primitives" : [
                {
                    "attributes" : {
                        "NORMAL" : 30, 
                        "POSITION" : 29, 
                        "TANGENT" : 31, 
                        "TEXCOORD_0" : 32
                    }, 
                    "indices" : 28, 
                    "material" : 0
                }
            ]
        }
    ], 
    "nodes" : [
        {
            "mesh" : 5, 
            "name" : "body", 
            "rotation" : [
                0.7071068286895752, 
                0.0, 
                -0.0, 
                0.7071067094802856
            ]
        }, 
        {
            "mesh" : 6, 
            "name" : "buttonA", 
            "rotation" : [
                0.7071068286895752, 
                0.0, 
                -0.0, 
                0.7071067094802856
            ]
        }, 
        {
            "mesh" : 4, 
            "name" : "buttonB", 
            "rotation" : [
                0.7071068286895752, 
                0.0, 
                -0.0, 
                0.7071067094802856
            ]
        }, 
        {
            "mesh" : 3, 
            "name" : "buttonHand", 
            "rotation" : [
                0.7071068286895752, 
                0.0, 
                -0.0, 
                0.7071067094802856
            ]
        }, 
        {
            "mesh" : 2, 
            "name" : "buttonHome", 
            "rotation" : [
                0.7071068286895752, 
                0.0, 
                -0.0, 
                0.7071067094802856
            ]
        }, 
        {
            "mesh" : 0, 
            "name" : "buttonTrigger", 
            "rotation" : [
                0.7071068286895752, 
                0.0, 
                -0.0, 
                0.7071067094802856
            ]
        }, 
        {
            "mesh" : 1, 
            "name" : "stick", 
            "rotation" : [
                0.7071068286895752, 
                0.0, 
                -0.0, 
                0.7071067094802856
            ]
        }
    ], 
    "samplers" : [
        {}
    ], 
    "scene" : 0, 
    "scenes" : [
        {
            "name" : "Scene", 
            "nodes" : [
                5, 
                3, 
                6, 
                2, 
                1, 
                4, 
                0
            ]
        }
    ], 
    "textures" : [
        {
            "sampler" : 0, 
            "source" : 0
        }, 
        {
            "sampler" : 0, 
            "source" : 1
        }
    ]
}
