{
    "asset" : {
        "generator" : "Khronos glTF Blender I/O v0.9.36",
        "version" : "2.0"
    },
    "scene" : 0,
    "scenes" : [
        {
            "name" : "Scene",
            "nodes" : [
                0,
                1,
                2,
                3,
                4,
                5,
                6,
                7,
                8
            ]
        }
    ],
    "nodes" : [
        {
            "name" : "Light",
            "rotation" : [
                0.16907575726509094,
                0.7558803558349609,
                -0.27217137813568115,
                0.570947527885437
            ],
            "translation" : [
                4.076245307922363,
                5.903861999511719,
                -1.0054539442062378
            ]
        },
        {
            "name" : "Camera",
            "rotation" : [
                0.483536034822464,
                0.33687159419059753,
                -0.20870360732078552,
                0.7804827094078064
            ],
            "translation" : [
                7.358891487121582,
                4.958309173583984,
                6.925790786743164
            ]
        },
        {
            "mesh" : 0,
            "name" : "body",
            "rotation" : [
                0.7071068286895752,
                0,
                0,
                0.7071067094802856
            ]
        },
        {
            "mesh" : 1,
            "name" : "stick",
            "rotation" : [
                0.7071068286895752,
                0,
                0,
                0.7071067094802856
            ]
        },
        {
            "mesh" : 2,
            "name" : "buttonY",
            "rotation" : [
                0.7071068286895752,
                0,
                0,
                0.7071067094802856
            ]
        },
        {
            "mesh" : 3,
            "name" : "buttonX",
            "rotation" : [
                0.7071068286895752,
                0,
                0,
                0.7071067094802856
            ]
        },
        {
            "mesh" : 4,
            "name" : "buttonMenu",
            "rotation" : [
                0.7071068286895752,
                0,
                0,
                0.7071067094802856
            ]
        },
        {
            "mesh" : 5,
            "name" : "buttonTrigger",
            "rotation" : [
                0.7071068286895752,
                0,
                0,
                0.7071067094802856
            ]
        },
        {
            "mesh" : 6,
            "name" : "buttonHand",
            "rotation" : [
                0.7071068286895752,
                0,
                0,
                0.7071067094802856
            ]
        }
    ],
    "materials" : [
        {
            "doubleSided" : true,
            "name" : "controllerMTL",
            "pbrMetallicRoughness" : {
                "baseColorTexture" : {
                    "index" : 0,
                    "texCoord" : 0
                },
                "metallicFactor" : 0,
                "roughnessFactor" : 0.6766191720962524
            }
        }
    ],
    "meshes" : [
        {
            "name" : "oculusQuest_oculusTouch_Left",
            "primitives" : [
                {
                    "attributes" : {
                        "POSITION" : 0,
                        "NORMAL" : 1,
                        "TEXCOORD_0" : 2
                    },
                    "indices" : 3,
                    "material" : 0
                }
            ]
        },
        {
            "name" : "oculusQuest_oculusTouch_Left.001",
            "primitives" : [
                {
                    "attributes" : {
                        "POSITION" : 4,
                        "NORMAL" : 5,
                        "TEXCOORD_0" : 6
                    },
                    "indices" : 7,
                    "material" : 0
                }
            ]
        },
        {
            "name" : "oculusQuest_oculusTouch_Left.002",
            "primitives" : [
                {
                    "attributes" : {
                        "POSITION" : 8,
                        "NORMAL" : 9,
                        "TEXCOORD_0" : 10
                    },
                    "indices" : 11,
                    "material" : 0
                }
            ]
        },
        {
            "name" : "oculusQuest_oculusTouch_Left.003",
            "primitives" : [
                {
                    "attributes" : {
                        "POSITION" : 12,
                        "NORMAL" : 13,
                        "TEXCOORD_0" : 14
                    },
                    "indices" : 15,
                    "material" : 0
                }
            ]
        },
        {
            "name" : "oculusQuest_oculusTouch_Left.004",
            "primitives" : [
                {
                    "attributes" : {
                        "POSITION" : 16,
                        "NORMAL" : 17,
                        "TEXCOORD_0" : 18
                    },
                    "indices" : 19,
                    "material" : 0
                }
            ]
        },
        {
            "name" : "oculusQuest_oculusTouch_Left.005",
            "primitives" : [
                {
                    "attributes" : {
                        "POSITION" : 20,
                        "NORMAL" : 21,
                        "TEXCOORD_0" : 22
                    },
                    "indices" : 23,
                    "material" : 0
                }
            ]
        },
        {
            "name" : "oculusQuest_oculusTouch_Left.006",
            "primitives" : [
                {
                    "attributes" : {
                        "POSITION" : 24,
                        "NORMAL" : 25,
                        "TEXCOORD_0" : 26
                    },
                    "indices" : 27,
                    "material" : 0
                }
            ]
        }
    ],
    "textures" : [
        {
            "source" : 0
        }
    ],
    "images" : [
        {
            "bufferView" : 4,
            "mimeType" : "image/png",
            "name" : "OculusTouchTex"
        }
    ],
    "accessors" : [
        {
            "bufferView" : 0,
            "componentType" : 5126,
            "count" : 1466,
            "max" : [
                0.03577699884772301,
                0.07178369909524918,
                0.06550119817256927
            ],
            "min" : [
                -0.05477700009942055,
                -0.03601260110735893,
                -0.06724510341882706
            ],
            "type" : "VEC3"
        },
        {
            "bufferView" : 1,
            "componentType" : 5126,
            "count" : 1466,
            "type" : "VEC3"
        },
        {
            "bufferView" : 2,
            "componentType" : 5126,
            "count" : 1466,
            "type" : "VEC2"
        },
        {
            "bufferView" : 3,
            "componentType" : 5123,
            "count" : 6012,
            "type" : "SCALAR"
        },
        {
            "bufferView" : 5,
            "componentType" : 5126,
            "count" : 123,
            "max" : [
                -0.009522000327706337,
                -0.0015897400444373488,
                0.0016928799450397491
            ],
            "min" : [
                -0.026359999552369118,
                -0.018162399530410767,
                -0.01112470030784607
            ],
            "type" : "VEC3"
        },
        {
            "bufferView" : 6,
            "componentType" : 5126,
            "count" : 123,
            "type" : "VEC3"
        },
        {
            "bufferView" : 7,
            "componentType" : 5126,
            "count" : 123,
            "type" : "VEC2"
        },
        {
            "bufferView" : 8,
            "componentType" : 5123,
            "count" : 561,
            "type" : "SCALAR"
        },
        {
            "bufferView" : 9,
            "componentType" : 5126,
            "count" : 66,
            "max" : [
                0.0077840001322329044,
                -0.0038480800576508045,
                0.0014545300509780645
            ],
            "min" : [
                -0.0027550000231713057,
                -0.014443499967455864,
                -0.0028546201065182686
            ],
            "type" : "VEC3"
        },
        {
            "bufferView" : 10,
            "componentType" : 5126,
            "count" : 66,
            "type" : "VEC3"
        },
        {
            "bufferView" : 11,
            "componentType" : 5126,
            "count" : 66,
            "type" : "VEC2"
        },
        {
            "bufferView" : 12,
            "componentType" : 5123,
            "count" : 216,
            "type" : "SCALAR"
        },
        {
            "bufferView" : 13,
            "componentType" : 5126,
            "count" : 66,
            "max" : [
                0.003745000110939145,
                0.010029000230133533,
                0.003725260030478239
            ],
            "min" : [
                -0.006787000223994255,
                -0.0005925510195083916,
                -0.0006632329896092415
            ],
            "type" : "VEC3"
        },
        {
            "bufferView" : 14,
            "componentType" : 5126,
            "count" : 66,
            "type" : "VEC3"
        },
        {
            "bufferView" : 15,
            "componentType" : 5126,
            "count" : 66,
            "type" : "VEC2"
        },
        {
            "bufferView" : 16,
            "componentType" : 5123,
            "count" : 216,
            "type" : "SCALAR"
        },
        {
            "bufferView" : 17,
            "componentType" : 5126,
            "count" : 56,
            "max" : [
                -0.004819000139832497,
                0.02801170013844967,
                0.005170019809156656
            ],
            "min" : [
                -0.014181000180542469,
                0.018499299883842468,
                0.0040407199412584305
            ],
            "type" : "VEC3"
        },
        {
            "bufferView" : 18,
            "componentType" : 5126,
            "count" : 56,
            "type" : "VEC3"
        },
        {
            "bufferView" : 19,
            "componentType" : 5126,
            "count" : 56,
            "type" : "VEC2"
        },
        {
            "bufferView" : 20,
            "componentType" : 5123,
            "count" : 156,
            "type" : "SCALAR"
        },
        {
            "bufferView" : 21,
            "componentType" : 5126,
            "count" : 122,
            "max" : [
                0.0039029999170452356,
                -0.012710499577224255,
                0.032026201486587524
            ],
            "min" : [
                -0.022902999073266983,
                -0.03073819912970066,
                0.006628260016441345
            ],
            "type" : "VEC3"
        },
        {
            "bufferView" : 22,
            "componentType" : 5126,
            "count" : 122,
            "type" : "VEC3"
        },
        {
            "bufferView" : 23,
            "componentType" : 5126,
            "count" : 122,
            "type" : "VEC2"
        },
        {
            "bufferView" : 24,
            "componentType" : 5123,
            "count" : 426,
            "type" : "SCALAR"
        },
        {
            "bufferView" : 25,
            "componentType" : 5126,
            "count" : 103,
            "max" : [
                0.009863000363111496,
                0.035124000161886215,
                0.03746030107140541
            ],
            "min" : [
                -0.002933999989181757,
                0.010118200443685055,
                0.018093600869178772
            ],
            "type" : "VEC3"
        },
        {
            "bufferView" : 26,
            "componentType" : 5126,
            "count" : 103,
            "type" : "VEC3"
        },
        {
            "bufferView" : 27,
            "componentType" : 5126,
            "count" : 103,
            "type" : "VEC2"
        },
        {
            "bufferView" : 28,
            "componentType" : 5123,
            "count" : 384,
            "type" : "SCALAR"
        }
    ],
    "bufferViews" : [
        {
            "buffer" : 0,
            "byteLength" : 17592,
            "byteOffset" : 0
        },
        {
            "buffer" : 0,
            "byteLength" : 17592,
            "byteOffset" : 17592
        },
        {
            "buffer" : 0,
            "byteLength" : 11728,
            "byteOffset" : 35184
        },
        {
            "buffer" : 0,
            "byteLength" : 12024,
            "byteOffset" : 46912
        },
        {
            "buffer" : 0,
            "byteLength" : 38235,
            "byteOffset" : 58936
        },
        {
            "buffer" : 0,
            "byteLength" : 1476,
            "byteOffset" : 97172
        },
        {
            "buffer" : 0,
            "byteLength" : 1476,
            "byteOffset" : 98648
        },
        {
            "buffer" : 0,
            "byteLength" : 984,
            "byteOffset" : 100124
        },
        {
            "buffer" : 0,
            "byteLength" : 1122,
            "byteOffset" : 101108
        },
        {
            "buffer" : 0,
            "byteLength" : 792,
            "byteOffset" : 102232
        },
        {
            "buffer" : 0,
            "byteLength" : 792,
            "byteOffset" : 103024
        },
        {
            "buffer" : 0,
            "byteLength" : 528,
            "byteOffset" : 103816
        },
        {
            "buffer" : 0,
            "byteLength" : 432,
            "byteOffset" : 104344
        },
        {
            "buffer" : 0,
            "byteLength" : 792,
            "byteOffset" : 104776
        },
        {
            "buffer" : 0,
            "byteLength" : 792,
            "byteOffset" : 105568
        },
        {
            "buffer" : 0,
            "byteLength" : 528,
            "byteOffset" : 106360
        },
        {
            "buffer" : 0,
            "byteLength" : 432,
            "byteOffset" : 106888
        },
        {
            "buffer" : 0,
            "byteLength" : 672,
            "byteOffset" : 107320
        },
        {
            "buffer" : 0,
            "byteLength" : 672,
            "byteOffset" : 107992
        },
        {
            "buffer" : 0,
            "byteLength" : 448,
            "byteOffset" : 108664
        },
        {
            "buffer" : 0,
            "byteLength" : 312,
            "byteOffset" : 109112
        },
        {
            "buffer" : 0,
            "byteLength" : 1464,
            "byteOffset" : 109424
        },
        {
            "buffer" : 0,
            "byteLength" : 1464,
            "byteOffset" : 110888
        },
        {
            "buffer" : 0,
            "byteLength" : 976,
            "byteOffset" : 112352
        },
        {
            "buffer" : 0,
            "byteLength" : 852,
            "byteOffset" : 113328
        },
        {
            "buffer" : 0,
            "byteLength" : 1236,
            "byteOffset" : 114180
        },
        {
            "buffer" : 0,
            "byteLength" : 1236,
            "byteOffset" : 115416
        },
        {
            "buffer" : 0,
            "byteLength" : 824,
            "byteOffset" : 116652
        },
        {
            "buffer" : 0,
            "byteLength" : 768,
            "byteOffset" : 117476
        }
    ],
    "buffers" : [
        {
            "byteLength" : 118244,
            "uri" : "data:application/octet-stream;base64,"
        }
    ]
}
